<svg width="24" height="24" viewBox="0 0 24 24" fill="none" xmlns="http://www.w3.org/2000/svg">
  <!-- 简化版Logo：适用于小尺寸显示 -->
  <defs>
    <linearGradient id="simpleLipGradient" x1="0%" y1="0%" x2="100%" y2="100%">
      <stop offset="0%" style="stop-color:#E91E63;stop-opacity:1" />
      <stop offset="100%" style="stop-color:#AD1457;stop-opacity:1" />
    </linearGradient>
  </defs>

  <!-- 简化的唇形设计 -->
  <path d="M12 6 C8 6, 5 8, 5 11 C5 12.5, 6 14, 7.5 15 L7.5 17 C7.5 18.5, 9 20, 12 20 C15 20, 16.5 18.5, 16.5 17 L16.5 15 C18 14, 19 12.5, 19 11 C19 8, 16 6, 12 6 Z" fill="url(#simpleLipGradient)"/>

  <!-- 简化高光 -->
  <path d="M12 8 C9.5 8, 7.5 9, 7.5 10.5 C7.5 11, 8 11.5, 8.5 11.75 C10 10.5, 11 10, 12 10 C13 10, 14 10.5, 15.5 11.75 C16 11.5, 16.5 11, 16.5 10.5 C16.5 9, 14.5 8, 12 8 Z" fill="#FFFFFF" opacity="0.4"/>

  <!-- 简化唇缝 -->
  <path d="M9 12 Q12 13.5, 15 12" stroke="#AD1457" stroke-width="1" fill="none" opacity="0.7"/>

  <!-- 装饰点 -->
  <circle cx="4" cy="4" r="1" fill="#E91E63" opacity="0.8"/>
  <circle cx="20" cy="4" r="1" fill="#E91E63" opacity="0.8"/>
</svg>