<svg width="24" height="24" viewBox="0 0 24 24" fill="none" xmlns="http://www.w3.org/2000/svg">
  <!-- 设置图标 -->
  <circle cx="12" cy="12" r="3" stroke="currentColor" stroke-width="2" fill="none"/>
  <path d="M19.4 15A1.65 1.65 0 0 0 21 13.75A1.65 1.65 0 0 0 19.4 12.5L19 12.19A2.5 2.5 0 0 0 19 11.81L19.4 11.5A1.65 1.65 0 0 0 21 10.25A1.65 1.65 0 0 0 19.4 9L18.76 8.66A2.47 2.47 0 0 0 18.19 7.81L18.53 7.17A1.65 1.65 0 0 0 17.83 5A1.65 1.65 0 0 0 16.17 5.83L15.53 6.17A2.47 2.47 0 0 0 14.68 6.64L14.34 6A1.65 1.65 0 0 0 12.75 4.4A1.65 1.65 0 0 0 11.25 6L10.91 6.34A2.47 2.47 0 0 0 10.06 6.81L9.42 6.47A1.65 1.65 0 0 0 7.17 7.17A1.65 1.65 0 0 0 7.83 8.83L8.17 9.47A2.47 2.47 0 0 0 8.64 10.32L8 10.66A1.65 1.65 0 0 0 6.4 12.25A1.65 1.65 0 0 0 8 13.75L8.34 14.09A2.47 2.47 0 0 0 8.81 14.94L8.47 15.58A1.65 1.65 0 0 0 9.17 17.83A1.65 1.65 0 0 0 10.83 17.17L11.47 16.83A2.47 2.47 0 0 0 12.32 16.36L12.66 17A1.65 1.65 0 0 0 14.25 17.6A1.65 1.65 0 0 0 15.75 17L16.09 16.66A2.47 2.47 0 0 0 16.94 16.19L17.58 16.53A1.65 1.65 0 0 0 19.83 15.83A1.65 1.65 0 0 0 19.17 14.17L18.83 13.53A2.47 2.47 0 0 0 18.36 12.68L19 12.34A1.65 1.65 0 0 0 19.4 15Z" stroke="currentColor" stroke-width="2" fill="none"/>
</svg>