<svg width="24" height="24" viewBox="0 0 24 24" fill="none" xmlns="http://www.w3.org/2000/svg">
  <!-- 实用工具图标 -->
  <path d="M14.7 6.3A1 1 0 0 0 13 5H9A1 1 0 0 0 8.3 6.3L6.3 8.3A1 1 0 0 0 6 9V13A1 1 0 0 0 6.3 13.7L8.3 15.7A1 1 0 0 0 9 16H13A1 1 0 0 0 13.7 15.7L15.7 13.7A1 1 0 0 0 16 13V9A1 1 0 0 0 15.7 8.3L14.7 6.3Z" stroke="currentColor" stroke-width="2" fill="none"/>
  <circle cx="11" cy="11" r="2" stroke="currentColor" stroke-width="2" fill="none"/>
  <path d="M21.2 15.89A3 3 0 0 1 18 22H6A3 3 0 0 1 2.8 15.89L2 14H22L21.2 15.89Z" stroke="currentColor" stroke-width="2" fill="none"/>
  <line x1="10" y1="18" x2="14" y2="18" stroke="currentColor" stroke-width="1"/>
</svg>