<svg width="24" height="24" viewBox="0 0 24 24" fill="none" xmlns="http://www.w3.org/2000/svg">
  <!-- 骨骼图标 -->
  <path d="M9.06 3.94A1.06 1.06 0 1 1 7.94 5.06L5.06 7.94A1.06 1.06 0 1 1 3.94 6.82L6.82 3.94A1.06 1.06 0 1 1 7.94 5.06L9.06 3.94Z" stroke="currentColor" stroke-width="2" stroke-linecap="round" stroke-linejoin="round"/>
  <path d="M20.18 16.12A1.06 1.06 0 1 1 19.06 17.24L16.18 20.12A1.06 1.06 0 1 1 15.06 19L17.94 16.12A1.06 1.06 0 1 1 19.06 17.24L20.18 16.12Z" stroke="currentColor" stroke-width="2" stroke-linecap="round" stroke-linejoin="round"/>
  <path d="M8.5 8.5L15.5 15.5" stroke="currentColor" stroke-width="3" stroke-linecap="round"/>
  <circle cx="7" cy="7" r="2" stroke="currentColor" stroke-width="2" fill="none"/>
  <circle cx="17" cy="17" r="2" stroke="currentColor" stroke-width="2" fill="none"/>
</svg>