<svg width="24" height="24" viewBox="0 0 24 24" fill="none" xmlns="http://www.w3.org/2000/svg">
  <!-- 蛋白质图标 -->
  <path d="M12 2C8 2 5 5 5 9C5 11 6 13 8 14C6 15 5 17 5 19C5 21 7 22 9 22H15C17 22 19 21 19 19C19 17 18 15 16 14C18 13 19 11 19 9C19 5 16 2 12 2Z" stroke="currentColor" stroke-width="2" stroke-linecap="round" stroke-linejoin="round"/>
  <circle cx="10" cy="8" r="1" stroke="currentColor" stroke-width="1" fill="currentColor"/>
  <circle cx="14" cy="8" r="1" stroke="currentColor" stroke-width="1" fill="currentColor"/>
  <circle cx="12" cy="12" r="1" stroke="currentColor" stroke-width="1" fill="currentColor"/>
  <circle cx="9" cy="16" r="1" stroke="currentColor" stroke-width="1" fill="currentColor"/>
  <circle cx="15" cy="16" r="1" stroke="currentColor" stroke-width="1" fill="currentColor"/>
</svg>